<svg xmlns="http://www.w3.org/2000/svg" viewBox="0 0 640 480" width="640" height="480">
  <defs>
    <linearGradient id="hb" x1="0" y1="0" x2="1" y2="1">
      <stop offset="0" stop-color="#FBBF24"/><stop offset="1" stop-color="#F59E0B"/>
    </linearGradient>
    <linearGradient id="hscr" x1="0" y1="0" x2="1" y2="1">
      <stop offset="0" stop-color="#0ea5e9"/><stop offset="0.5" stop-color="#6366f1"/><stop offset="1" stop-color="#f59e0b"/>
    </linearGradient>
  </defs>
  <circle cx="400" cy="220" r="210" fill="url(#hb)"/>
  <g transform="translate(300 150)">
    <rect x="0" y="0" width="290" height="180" rx="12" fill="#374151"/>
    <rect x="10" y="10" width="270" height="152" rx="6" fill="url(#hscr)"/>
    <path d="M-16 180h322l18 30a6 6 0 0 1-5 9H-29a6 6 0 0 1-5-9z" fill="#9ca3af"/>
  </g>
  <g transform="translate(70 130)">
    <path d="M8 8h34l40 176h158l30-118H92" fill="none" stroke="#111827" stroke-width="10" stroke-linecap="round" stroke-linejoin="round"/>
    <circle cx="106" cy="216" r="16" fill="#111827"/>
    <circle cx="188" cy="216" r="16" fill="#111827"/>
    <rect x="96" y="34" width="70" height="52" rx="6" fill="#111827"/>
    <rect x="104" y="42" width="54" height="30" rx="3" fill="#38bdf8"/>
    <rect x="172" y="46" width="62" height="40" rx="8" fill="#f8fafc"/>
    <rect x="120" y="96" width="110" height="46" rx="6" fill="#1f2937"/>
    <circle cx="150" cy="119" r="12" fill="#334155"/><circle cx="200" cy="119" r="12" fill="#334155"/>
  </g>
  <g transform="translate(120 330)">
    <rect x="0" y="0" width="120" height="70" rx="10" fill="#111827"/>
    <circle cx="34" cy="34" r="16" fill="#22c55e"/>
    <circle cx="86" cy="34" r="16" fill="#22c55e"/>
    <rect x="52" y="12" width="16" height="10" rx="4" fill="#4b5563"/>
  </g>
</svg>
